Coordinates
version=1
nRows=7
nColumns=40
inDegrees=yes

Units are S.I. units (second, meters, Newtons, ...)
If the header above contains a line with 'inDegrees', this indicates whether rotational values are in degrees (yes) or radians (no).

endheader
time	pelvis_tilt	pelvis_list	pelvis_rotation	pelvis_tx	pelvis_ty	pelvis_tz	hip_flexion_r	hip_adduction_r	hip_rotation_r	knee_angle_r	knee_angle_r_beta	ankle_angle_r	subtalar_angle_r	mtp_angle_r	hip_flexion_l	hip_adduction_l	hip_rotation_l	knee_angle_l	knee_angle_l_beta	ankle_angle_l	subtalar_angle_l	mtp_angle_l	lumbar_extension	lumbar_bending	lumbar_rotation	arm_flex_r	arm_add_r	arm_rot_r	elbow_flex_r	pro_sup_r	wrist_flex_r	wrist_dev_r	arm_flex_l	arm_add_l	arm_rot_l	elbow_flex_l	pro_sup_l	wrist_flex_l	wrist_dev_l
      6.45000000	    -30.74587184	      6.78221118	     -5.99076767	     -0.36096007	      0.86819602	     -1.06559365	     16.89790741	     -8.23495306	     12.81443353	     65.76959473	      1.14789598	     14.64302334	      0.00000000	      0.00000000	     67.67838881	      1.73976170	     -7.82978043	     64.92895342	      1.13322402	     15.93019051	      0.00000000	      0.00000000	      5.33720557	    -14.17335132	     11.72214055	     89.97561213	     -5.76038600	      8.20666016	     55.28423684	     10.75500303	      0.00000000	      0.00000000	     89.97156274	    -13.61644327	      5.25255915	     57.63955612	     32.15227459	      0.00000000	      0.00000000
      6.45500000	    -30.55057969	      6.84151731	     -6.05639849	     -0.36046428	      0.86949364	     -1.06553475	     16.74797909	     -8.33682054	     12.79364560	     65.69309699	      1.14656084	     14.58552958	      0.00000000	      0.00000000	     67.31906324	      1.79279367	     -7.85039879	     64.65297447	      1.12840728	     15.83092187	      0.00000000	      0.00000000	      5.21205385	    -14.22958445	     11.77764095	     89.97561076	     -5.78658213	      8.25357799	     55.23998595	     10.71230311	      0.00000000	      0.00000000	     89.97147583	    -13.69673005	      5.27445362	     57.61211841	     32.14483966	      0.00000000	      0.00000000
      6.46000000	    -30.53005905	      6.83506007	     -6.05576559	     -0.36024155	      0.87026620	     -1.06542257	     16.77523133	     -8.32657620	     12.78013852	     65.67193612	      1.14619151	     14.58744691	      0.00000000	      0.00000000	     67.25759505	      1.79375857	     -7.85292674	     64.63499872	      1.12809354	     15.82294580	      0.00000000	      0.00000000	      5.26660180	    -14.22807768	     11.77827458	     89.97555964	     -5.80311677	      8.24483602	     55.26051140	     10.70997528	      0.00000000	      0.00000000	     89.97145908	    -13.71455610	      5.26789488	     57.63231906	     32.14541786	      0.00000000	      0.00000000
      6.46500000	    -30.43883111	      6.77110331	     -6.07758142	     -0.35980990	      0.87136831	     -1.06536490	     16.69075140	     -8.29131034	     12.69428621	     65.57738209	      1.14454123	     14.56760086	      0.00000000	      0.00000000	     66.96838290	      1.76424248	     -7.83973422	     64.28922638	      1.12205867	     15.71916642	      0.00000000	      0.00000000	      5.25708837	    -14.16973125	     11.77394130	     89.97552410	     -5.86243650	      8.30159422	     55.16099999	     10.67140710	      0.00000000	      0.00000000	     89.97141542	    -13.76244283	      5.34170386	     57.55876972	     32.13985179	      0.00000000	      0.00000000
      6.47000000	    -30.40313112	      6.77247738	     -6.08563264	     -0.35950063	      0.87230758	     -1.06534443	     16.69964502	     -8.29688326	     12.68088890	     65.54494768	      1.14397514	     14.55902537	      0.00000000	      0.00000000	     66.88210409	      1.77329228	     -7.83570297	     64.25629302	      1.12148388	     15.70435436	      0.00000000	      0.00000000	      5.28814647	    -14.16371025	     11.77970827	     89.97546943	     -5.88140167	      8.29724535	     55.17182011	     10.66753960	      0.00000000	      0.00000000	     89.97138041	    -13.78665102	      5.33785744	     57.56977175	     32.14005296	      0.00000000	      0.00000000
      6.47500000	    -30.22009771	      6.67851495	     -6.04124080	     -0.35894872	      0.87342676	     -1.06533488	     16.46870361	     -8.28513043	     12.47279091	     65.35209242	      1.14060919	     14.48926243	      0.00000000	      0.00000000	     66.49500140	      1.83808401	     -7.69876104	     63.90909342	      1.11542410	     15.55192552	      0.00000000	      0.00000000	      5.16818995	    -14.07622090	     11.73580179	     89.97546376	     -5.96743954	      8.40322933	     55.04300544	     10.56630954	      0.00000000	      0.00000000	     89.97140350	    -13.86748704	      5.50143722	     57.45637927	     32.12753709	      0.00000000	      0.00000000
      6.48000000	    -30.19688039	      6.67052088	     -6.05358128	     -0.35855108	      0.87429694	     -1.06531576	     16.48209771	     -8.28521551	     12.46151538	     65.33291280	      1.14027444	     14.48476801	      0.00000000	      0.00000000	     66.41971852	      1.83527514	     -7.69393700	     63.88805332	      1.11505688	     15.54242793	      0.00000000	      0.00000000	      5.23322047	    -14.06041462	     11.73846226	     89.97535533	     -5.97730970	      8.39744954	     55.06227226	     10.56481421	      0.00000000	      0.00000000	     89.97129491	    -13.88289053	      5.49090203	     57.47732665	     32.12838548	      0.00000000	      0.00000000
